<?xml version="1.0" standalone="no"?>
<!DOCTYPE svg PUBLIC "-//W3C//DTD SVG 20010904//EN"
 "http://www.w3.org/TR/2001/REC-SVG-20010904/DTD/svg10.dtd">
<svg version="1.0" xmlns="http://www.w3.org/2000/svg"
 width="625.000000pt" height="399.000000pt" viewBox="0 0 625.000000 399.000000"
 preserveAspectRatio="xMidYMid meet">

<g transform="translate(0.000000,399.000000) scale(0.100000,-0.100000)"
fill="#000000" stroke="none">
<path d="M2830 2845 l0 -225 25 0 25 0 2 198 3 197 1265 0 1265 0 3 -1123 2
-1122 -1267 2 -1268 3 -3 198 -2 197 -25 0 -25 0 0 -225 0 -225 1320 0 1320 0
0 1175 0 1175 -1320 0 -1320 0 0 -225z"/>
<path d="M490 2163 l0 -383 40 0 40 0 0 195 0 194 47 36 c43 32 52 36 101 33
47 -3 58 -7 76 -31 19 -26 21 -43 24 -228 l3 -199 40 0 40 0 -3 213 c-3 181
-6 217 -21 245 -49 90 -166 97 -273 16 -17 -13 -33 -24 -36 -24 -3 0 -3 69 0
154 l5 154 -42 4 -41 4 0 -383z"/>
<path d="M2570 2398 l0 -148 -42 27 c-63 39 -124 42 -193 9 -91 -45 -135 -128
-135 -256 0 -117 38 -198 113 -241 58 -32 151 -24 212 19 25 18 47 32 49 32 2
0 6 -13 10 -30 5 -25 10 -30 36 -30 l30 0 0 379 0 379 -40 4 -40 4 0 -148z
m-37 -184 l38 -25 -3 -146 -3 -146 -38 -31 c-34 -27 -47 -31 -98 -31 -48 1
-63 5 -85 25 -42 40 -64 96 -64 173 0 176 124 266 253 181z"/>
<path d="M1155 2284 c-76 -31 -80 -36 -60 -67 l16 -26 36 21 c53 32 129 41
171 21 36 -17 62 -62 62 -107 0 -22 -5 -24 -57 -30 -97 -12 -184 -45 -225 -86
-36 -35 -38 -41 -38 -99 0 -56 3 -65 34 -99 34 -36 36 -37 109 -37 66 0 79 3
126 33 29 17 54 32 57 32 2 0 4 -13 4 -30 0 -28 3 -30 36 -30 l36 0 -4 198
c-3 187 -4 199 -28 246 -32 64 -73 86 -155 86 -40 -1 -79 -9 -120 -26z m223
-314 c-3 -71 -4 -74 -40 -103 -47 -38 -133 -49 -172 -23 -54 35 -39 128 27
163 42 22 170 53 180 43 4 -4 7 -40 5 -80z"/>
<path d="M1810 2291 c-19 -11 -48 -31 -63 -45 -34 -32 -37 -32 -37 -2 0 42
-11 56 -41 56 l-29 0 0 -260 0 -260 40 0 40 0 0 195 0 195 48 35 c39 28 56 35
98 35 42 0 55 -5 75 -26 24 -25 24 -29 27 -230 l3 -204 40 0 40 0 -3 213 c-3
236 -9 260 -71 297 -41 26 -120 26 -167 1z"/>
<path d="M3482 2266 l-60 -44 -6 39 c-6 35 -9 39 -36 39 l-30 0 0 -260 0 -260
40 0 40 0 0 195 0 195 48 35 c41 30 54 35 96 33 41 -3 53 -8 70 -31 19 -26 21
-43 24 -228 l3 -199 40 0 39 0 0 195 0 195 48 35 c41 30 54 35 96 33 41 -3 53
-8 70 -31 19 -26 21 -43 24 -228 l3 -199 40 0 41 0 -4 213 c-4 236 -9 260 -71
297 -65 40 -148 22 -221 -48 l-35 -33 -23 35 c-28 44 -72 66 -131 66 -37 0
-55 -7 -105 -44z"/>
<path d="M4370 2301 c-14 -5 -46 -18 -72 -31 l-48 -22 17 -28 16 -28 32 19
c50 30 130 41 170 25 38 -16 65 -60 65 -105 0 -28 -2 -29 -52 -36 -181 -22
-268 -83 -268 -185 0 -88 54 -140 147 -140 52 0 142 34 158 60 11 18 24 10 27
-17 2 -24 8 -29 36 -31 l33 -3 -3 203 c-3 195 -4 205 -28 248 -32 57 -76 80
-150 79 -30 0 -66 -4 -80 -8z m180 -325 l0 -83 -42 -29 c-35 -25 -51 -29 -105
-29 -75 0 -93 15 -93 78 0 50 13 73 53 94 26 13 148 49 180 52 4 1 7 -37 7
-83z"/>
<path d="M4970 2282 c-25 -16 -51 -36 -59 -45 -22 -27 -31 -20 -31 23 0 39 -1
40 -35 40 l-35 0 0 -260 0 -260 40 0 40 0 0 188 0 188 33 31 c44 42 69 53 119
53 91 -1 102 -29 106 -267 l4 -193 34 0 34 0 0 205 c0 222 -5 249 -54 295 -21
19 -40 25 -89 28 -55 3 -67 0 -107 -26z"/>
<path d="M2770 2295 c0 -2 45 -118 100 -255 55 -138 100 -260 100 -271 0 -31
-29 -91 -57 -121 -21 -22 -36 -28 -69 -28 -37 0 -43 -3 -48 -27 -9 -34 7 -45
62 -40 59 6 117 47 146 105 13 26 60 153 105 282 45 129 91 259 102 288 26 71
25 74 -18 70 l-36 -3 -32 -100 c-18 -55 -49 -153 -69 -217 -20 -65 -40 -118
-44 -118 -4 0 -43 99 -86 220 l-79 220 -38 0 c-22 0 -39 -2 -39 -5z"/>
<path d="M951 1392 c-17 -31 -13 -40 5 -14 9 13 14 26 11 29 -3 2 -10 -4 -16
-15z"/>
<path d="M1019 1391 c-34 -28 -35 -104 0 -132 30 -24 56 -24 81 1 23 23 28 96
8 123 -21 27 -61 31 -89 8z m69 -7 c43 -30 21 -134 -29 -134 -22 0 -59 46 -59
72 0 22 18 60 34 70 17 11 29 10 54 -8z"/>
<path d="M1771 1399 c25 -9 49 -45 49 -74 0 -29 -24 -65 -49 -74 -15 -5 -19
-10 -10 -10 9 -1 27 8 40 18 34 28 34 104 0 132 -13 10 -31 19 -40 18 -9 0 -5
-5 10 -10z"/>
<path d="M2197 1390 c3 -11 7 -20 9 -20 2 0 4 9 4 20 0 11 -4 20 -9 20 -5 0
-7 -9 -4 -20z"/>
<path d="M2276 1397 c-27 -20 -16 -49 27 -72 26 -14 37 -27 37 -42 0 -28 -38
-40 -72 -23 -22 11 -22 10 -4 -4 36 -29 86 -12 86 29 0 19 -10 30 -41 45 -46
24 -49 47 -9 67 15 8 19 13 9 13 -8 0 -23 -6 -33 -13z"/>
<path d="M2898 1399 c-10 -5 -18 -21 -18 -35 0 -19 8 -28 35 -40 43 -18 54
-40 31 -62 -14 -14 -21 -15 -49 -4 -29 10 -30 10 -13 -3 37 -28 86 -10 86 30
0 19 -10 30 -40 45 -59 30 -48 82 14 65 17 -5 18 -4 6 4 -19 13 -30 13 -52 0z"/>
<path d="M3036 1389 c-20 -16 -26 -29 -26 -60 0 -43 14 -79 31 -79 6 0 3 10
-5 22 -22 31 -20 84 4 108 11 11 25 20 31 20 67 0 79 -118 15 -146 -19 -8 -24
-13 -13 -14 31 0 67 45 67 85 0 25 -8 44 -25 60 -29 30 -45 31 -79 4z"/>
<path d="M870 1397 c0 -4 8 -22 17 -40 9 -18 20 -52 24 -77 l6 -45 2 42 c0 23
6 45 11 48 6 3 10 12 10 18 0 7 -6 3 -12 -7 -10 -18 -13 -15 -34 25 -13 24
-23 40 -24 36z"/>
<path d="M1172 1343 c-2 -51 2 -67 18 -83 11 -11 28 -20 38 -19 11 0 7 4 -11
11 -29 10 -35 25 -40 103 -3 47 -4 46 -5 -12z"/>
<path d="M1272 1340 c-1 -37 -6 -71 -12 -78 -5 -7 -3 -6 6 1 11 11 14 29 11
78 l-3 64 -2 -65z"/>
<path d="M1343 1325 c0 -44 2 -61 4 -37 2 23 2 59 0 80 -2 20 -4 1 -4 -43z"/>
<path d="M1413 1389 c23 -13 22 -34 -4 -58 l-21 -20 22 -35 c29 -47 38 -47 11
0 l-22 37 21 14 c31 21 20 74 -14 73 -6 0 -3 -5 7 -11z"/>
<path d="M1540 1320 c0 -46 2 -81 5 -78 8 7 8 148 1 156 -3 3 -6 -32 -6 -78z"/>
<path d="M1638 1365 c-2 -19 -1 -56 3 -82 5 -42 7 -37 8 35 1 85 -4 107 -11
47z"/>
<path d="M1710 1381 c-18 -35 -12 -96 12 -117 l22 -19 -17 25 c-21 31 -22 79
-1 108 8 12 11 22 5 22 -6 0 -15 -9 -21 -19z"/>
<path d="M1876 1384 c-9 -24 -7 -27 9 -10 17 17 19 26 6 26 -5 0 -12 -7 -15
-16z"/>
<path d="M1986 1391 c-4 -6 -2 -11 3 -11 7 0 12 -28 13 -67 l2 -68 3 63 c4 62
-7 106 -21 83z"/>
<path d="M2060 1326 c0 -41 4 -77 9 -80 5 -4 7 11 4 34 -4 30 -2 40 8 40 12 0
12 2 0 9 -9 6 -12 20 -9 40 2 17 1 31 -4 31 -4 0 -8 -33 -8 -74z"/>
<path d="M2452 1318 c1 -46 3 -66 5 -46 4 33 8 37 36 41 l32 4 -34 1 c-32 2
-33 3 -29 42 2 22 0 40 -4 40 -5 0 -7 -37 -6 -82z"/>
<path d="M2524 1387 c13 -10 17 -22 14 -41 -4 -18 -2 -24 4 -18 17 17 5 66
-17 70 -19 4 -20 3 -1 -11z"/>
<path d="M2603 1325 c0 -44 2 -63 4 -43 4 33 8 37 36 41 l32 4 -32 1 c-29 2
-32 5 -36 40 -2 20 -4 1 -4 -43z"/>
<path d="M2730 1325 c0 -43 4 -75 10 -75 6 0 10 32 10 75 0 43 -4 75 -10 75
-6 0 -10 -32 -10 -75z"/>
<path d="M2810 1393 c17 -8 11 -52 -9 -63 -19 -10 -19 -11 2 -50 12 -22 25
-40 29 -40 4 0 -2 16 -14 36 -20 35 -21 37 -4 49 20 15 19 67 -2 71 -7 1 -8 0
-2 -3z"/>
<path d="M3190 1390 c0 -5 3 -10 8 -10 4 0 20 -23 35 -50 16 -28 30 -50 33
-50 3 0 -10 27 -28 60 -31 56 -48 74 -48 50z"/>
<path d="M3292 1380 c0 -14 2 -19 5 -12 2 6 2 18 0 25 -3 6 -5 1 -5 -13z"/>
<path d="M3370 1361 c-6 -22 -17 -59 -26 -83 -8 -23 -11 -38 -5 -33 11 12 41
99 41 120 0 7 4 17 10 20 5 3 19 -28 31 -70 12 -41 24 -73 27 -70 10 10 -41
155 -54 155 -7 0 -18 -18 -24 -39z"/>
<path d="M3492 1329 c-2 -85 2 -90 61 -88 29 2 28 2 -8 8 l-40 6 -6 75 -5 75
-2 -76z"/>
<path d="M3673 1320 c0 -47 2 -66 4 -42 l4 42 44 0 44 0 4 -42 c2 -24 4 -7 4
37 0 46 -2 67 -6 50 -5 -27 -10 -30 -48 -33 -42 -3 -42 -3 -46 35 -2 21 -4 0
-4 -47z"/>
<path d="M3859 1373 c-17 -42 -39 -117 -38 -128 0 -12 22 43 39 102 14 47 25
48 35 2 4 -17 9 -28 12 -25 8 7 -17 76 -28 76 -5 0 -14 -12 -20 -27z"/>
<path d="M3980 1395 c0 -3 5 -11 10 -18 6 -7 17 -21 26 -32 10 -15 10 -10 -3
18 -14 31 -33 50 -33 32z"/>
<path d="M4080 1335 c0 -37 -4 -65 -10 -65 -5 0 -10 4 -10 8 0 5 -7 17 -16 28
-11 13 -10 9 3 -15 32 -60 43 -51 43 33 0 42 -2 76 -5 76 -3 0 -5 -29 -5 -65z"/>
<path d="M4140 1322 l0 -78 28 -1 c26 -2 26 -2 4 8 -22 8 -23 14 -20 79 2 39
0 70 -4 70 -5 0 -8 -35 -8 -78z"/>
<path d="M4200 1393 c43 -15 55 -88 20 -123 -11 -11 -16 -20 -12 -20 21 0 42
39 42 77 0 41 -23 74 -51 72 -11 0 -11 -2 1 -6z"/>
<path d="M4280 1397 c0 -4 9 -25 20 -47 11 -22 21 -56 21 -77 l2 -38 6 40 c4
22 17 59 29 83 12 23 20 42 17 42 -2 0 -14 -19 -26 -42 l-21 -42 -24 44 c-13
25 -23 41 -24 37z"/>
<path d="M4420 1390 c0 -5 5 -10 10 -10 6 0 10 5 10 10 0 6 -4 10 -10 10 -5 0
-10 -4 -10 -10z"/>
<path d="M4525 1389 c-4 -6 -4 -13 -1 -16 3 -4 7 0 8 8 1 8 4 -20 8 -61 l6
-75 2 78 c2 71 -6 94 -23 66z"/>
<path d="M4630 1389 c0 -5 4 -8 9 -4 5 3 20 -26 32 -65 12 -39 24 -68 26 -66
9 9 -41 146 -54 146 -7 0 -13 -5 -13 -11z"/>
<path d="M4742 1323 l2 -78 3 68 c2 37 8 67 14 67 6 0 7 5 4 10 -17 27 -25 3
-23 -67z"/>
<path d="M4838 1328 c-2 -40 0 -77 4 -82 4 -6 8 27 8 72 0 45 -2 82 -4 82 -2
0 -6 -33 -8 -72z"/>
<path d="M4423 1305 c0 -38 2 -53 4 -32 2 20 2 52 0 70 -2 17 -4 1 -4 -38z"/>
<path d="M4440 1365 c0 -5 5 -17 10 -25 5 -8 10 -10 10 -5 0 6 -5 17 -10 25
-5 8 -10 11 -10 5z"/>
<path d="M4606 1314 c-10 -31 -16 -58 -13 -60 2 -2 12 21 22 51 9 31 15 58 13
60 -2 3 -12 -20 -22 -51z"/>
<path d="M4796 1319 c14 -28 27 -49 30 -47 5 5 -45 98 -52 98 -2 0 7 -23 22
-51z"/>
<path d="M3193 1305 c0 -33 2 -45 4 -27 2 18 2 45 0 60 -2 15 -4 0 -4 -33z"/>
<path d="M3983 1300 c0 -30 2 -43 4 -27 2 15 2 39 0 55 -2 15 -4 2 -4 -28z"/>
<path d="M1910 1335 c0 -5 5 -17 10 -25 5 -8 10 -10 10 -5 0 6 -5 17 -10 25
-5 8 -10 11 -10 5z"/>
<path d="M3292 1308 c-1 -22 -7 -38 -14 -38 -9 0 -9 -3 0 -12 18 -18 24 -5 19
43 -3 43 -4 43 -5 7z"/>
<path d="M3918 1275 c9 -19 17 -33 19 -31 6 5 -19 66 -27 66 -4 0 0 -16 8 -35z"/>
<path d="M1930 1281 c0 -5 5 -13 10 -16 6 -3 10 -2 10 4 0 5 -4 13 -10 16 -5
3 -10 2 -10 -4z"/>
<path d="M4470 1281 c0 -5 5 -13 10 -16 6 -3 10 -2 10 4 0 5 -4 13 -10 16 -5
3 -10 2 -10 -4z"/>
<path d="M2103 1243 c9 -2 25 -2 35 0 9 3 1 5 -18 5 -19 0 -27 -2 -17 -5z"/>
<path d="M2633 1243 c9 -2 23 -2 30 0 6 3 -1 5 -18 5 -16 0 -22 -2 -12 -5z"/>
</g>
</svg>
